<svg width="146" height="153" viewBox="0 0 146 153" fill="none" xmlns="http://www.w3.org/2000/svg">
<path d="M36.322 40.68C36.322 40.68 44.8683 43.92 46.6488 42.84C48.4293 41.76 39.8829 12.96 39.8829 12.96C39.8829 12.96 61.2488 44.28 64.4537 43.56C67.6585 42.84 75.1366 27 75.1366 27C75.1366 27 81.9024 38.16 84.7512 36C87.6 33.84 102.912 0 102.912 0C102.912 0 93.2976 38.52 96.8585 40.68C100.42 42.84 110.746 27 110.746 27C110.746 27 101.844 49.32 104.337 52.2C106.829 55.08 137.81 52.92 137.81 52.92C137.81 52.92 119.471 67.32 120.717 69.84C121.963 72.36 128.551 74.88 128.551 74.88C128.551 74.88 121.073 77.4 122.854 80.64C124.634 83.88 136.385 88.56 136.385 88.56C136.385 88.56 113.595 86.04 112.527 89.64C111.459 93.24 146 110.52 146 110.52C146 110.52 123.21 100.8 120.717 103.32C118.224 105.84 120.717 118.44 120.717 118.44C120.717 118.44 112.171 118.8 110.746 121.32C109.322 123.84 110.746 139.68 110.746 139.68C110.746 139.68 93.2976 122.04 89.0244 118.8C84.7512 115.56 75.1366 139.68 75.1366 139.68C75.1366 139.68 68.0146 134.28 66.2341 134.64C64.4537 135 60.1805 153 60.1805 153C60.1805 153 58.0439 136.08 56.6195 134.64C55.1951 133.2 46.6488 132.12 46.6488 132.12C46.6488 132.12 49.4976 123.12 46.2927 122.04C43.0878 120.96 18.5171 148.68 18.5171 148.68C18.5171 148.68 37.0341 123.48 36.322 121.32C35.6098 119.16 24.9268 121.32 24.9268 121.32C24.9268 121.32 38.8146 105.48 37.7463 103.68C36.6781 101.88 18.5171 103.32 18.5171 103.32C18.5171 103.32 25.2829 98.64 24.9268 96.84C24.5707 95.04 0 96.84 0 96.84C0 96.84 22.4341 88.56 22.7902 86.4C23.1463 84.24 13.5317 74.88 13.5317 74.88C13.5317 74.88 39.1707 75.6 39.8829 72C40.5951 68.4 13.5317 42.84 13.5317 42.84C13.5317 42.84 34.5415 51.48 36.322 49.68C38.1024 47.88 36.322 40.68 36.322 40.68Z" fill="white"/>
</svg>
